PathFileType	4	(X/Y/Z)	pose_F01_0-96.trc
DataRate	CameraRate	NumFrames	NumMarkers	Units	OrigDataRate	OrigDataStartFrame	OrigNumFrames
30	30	7	21	m	30	60	96
Frame#	Time	CHip			RHip			RKnee			RAnkle			RBigToe			RSmallToe			RHeel			LHip			LKnee			LAnkle			LBigToe			LSmallToe			LHeel			Neck			Nose			RShoulder			RElbow			RWrist			LShoulder			LElbow			LWrist			
		X1	Y1	Z1	X2	Y2	Z2	X3	Y3	Z3	X4	Y4	Z4	X5	Y5	Z5	X6	Y6	Z6	X7	Y7	Z7	X8	Y8	Z8	X9	Y9	Z9	X10	Y10	Z10	X11	Y11	Z11	X12	Y12	Z12	X13	Y13	Z13	X14	Y14	Z14	X15	Y15	Z15	X16	Y16	Z16	X17	Y17	Z17	X18	Y18	Z18	X19	Y19	Z19	X20	Y20	Z20	X21	Y21	Z21	
60	2.0	-0.2638655004662921	1.8266845105351386	-0.6142982416561127	-0.27204822919458693	1.825155653899686	-0.558461995166238	-0.26483651026193894	1.6926690490597773	-0.5399452345222182	-0.3099787313782088	1.5716310073661641	-0.5167786153206791	-0.23320361461876582	1.5258714855737603	-0.4397652411303089	-0.28378444834614136	1.543407346337398	-0.48303148241930194	-0.3225393624621763	1.5663479843218648	-0.5260948181459902	-0.25559688690641696	1.8273841044122112	-0.6728867116958875	-0.25969584736728957	1.6914876118548892	-0.6447294810099742													-0.2678720318694382	1.9875672552498904	-0.6527338404635753	-0.23546892604147088	2.056808788504644	-0.6372137668537605	-0.28271953912634357	1.986906992679132	-0.5662863163628623	-0.28263617717385436	1.9164172180803971	-0.4805776240384304	-0.22685505438072212	1.9320098482644879	-0.568755142750046	-0.2497845127344691	1.9889268713922512	-0.7353210981293332	-0.23420546643407775	1.91977546623589	-0.7564821104072988	-0.20621403821420542	1.923154246839489	-0.6686328056321245
61	2.033333333333333	-0.2643427157424325	1.8260323832474694	-0.61759480613168	-0.271543181801627	1.8270539341206027	-0.5590891303295191	-0.2632927263903018	1.692044836119121	-0.5393298313604367	-0.30671044004806947	1.569276491225011	-0.5114048296862722	-0.23320361461876582	1.5258714855737603	-0.4397652411303089	-0.26549571763844493	1.5376038239600829	-0.48867267050218455	-0.3189024770606046	1.56272153544156	-0.5191754363103036	-0.25617223226257085	1.827390353658186	-0.6763551162014145	-0.2585742757149934	1.691362648616102	-0.6459161874109751													-0.26566852943058533	1.9886499593029834	-0.6550292296691532	-0.23422158550870043	2.058331802819096	-0.6428293229461328	-0.28048461598090907	1.9877449196860388	-0.5685507421641239	-0.2845061457050126	1.9184812415065138	-0.4872240024439711	-0.22488192245803892	1.919323569905266	-0.568635250759389	-0.2484528783526088	1.989209619345008	-0.7405758013166199	-1.0329005088058916	1.8436842812021803	0.033094304643941926	-0.19877295477166096	1.9144514948420401	-0.6706355884065053
62	2.066666666666667	-0.2610923144270158	1.8265483200932489	-0.6170155267529861	-0.2693730964204	1.8258520873504076	-0.561141573990431	-0.26174894251866465	1.6914206231784645	-0.538714428198655	-0.30344214871793007	1.566921975083858	-0.5060310440518652	-0.23320361461876582	1.5258714855737603	-0.4397652411303089	-0.24720698693074852	1.5318003015827677	-0.4943138585850672	-0.3152655916590329	1.559095086561255	-0.5122560544746169	-0.25163842996567215	1.8257705351583216	-0.6807030895822708	-0.25745270406269727	1.6912376853773148	-0.6471028938119759													-0.26644610283827397	1.9886574209859167	-0.6580553529211687	-0.23403414557985824	2.0595319010825586	-0.6429550418032253	-0.2773379834613686	1.9878493098121366	-0.5759492023360956	-0.2835448085065635	1.916439989476077	-0.48398060003702137	-0.22827542636850245	1.9180980509849705	-0.5698897887734744	-0.24837660986104856	1.9892122003600805	-0.7406685317609989	-1.0266338450602988	1.84173415914587	0.026325770666590483	-0.20161441930772495	1.9111310846649296	-0.6710534177975469
63	2.1	-0.2592375978217058	1.8230044978620101	-0.6186344705204401	-0.26974336150231687	1.8239504720448216	-0.5606993344298299	-0.26020515864702753	1.6907964102378081	-0.5380990250368733	-0.30017385738779073	1.564567458942705	-0.5006572584174582	-0.23320361461876582	1.5258714855737603	-0.4397652411303089	-0.2467899931158814	1.5313890853487564	-0.49113859685626005	-0.3116287062574612	1.5554686376809501	-0.5053366726389302	-0.2464568945938702	1.8240860874363698	-0.681796669771164	-0.2577723959250504	1.6903016422456758	-0.6487940064017299													-0.2644662086182527	1.9875685726547976	-0.6603173181265126	-0.23407983163626125	2.0583863917914558	-0.6431774411600444	-0.2732503101122173	1.9879433097724386	-0.5803138922077756	-0.2766266575515966	1.9136966031737503	-0.486699237120623	-0.22608856211480785	1.915588489322661	-0.5801918582656095	-0.24707677518967663	1.9893835632120076	-0.7458001394190166	-1.0131537252133582	1.8403997887961772	0.007546788277283744	-0.19221094611510858	1.9060675010214296	-0.6763522942813819
64	2.1333333333333333	-0.2548981478216376	1.8234959519670133	-0.6230705579903525	-0.26763950039187645	1.8238806166637784	-0.5628000668557396	-0.2586613747753904	1.6901721972971517	-0.5374836218750918	-0.29690556605765134	1.5622129428015519	-0.4952834727830512	-0.23320361461876582	1.5258714855737603	-0.4397652411303089	-0.24637299930101428	1.530977869114745	-0.4879633351274529	-0.3079918208558895	1.5518421888006453	-0.49841729080324354	-0.24435194987382014	1.8268141088567198	-0.6840700234598798	-0.2580920877874035	1.6893655991140368	-0.6504851189914838													-0.26236894057579596	1.9875865402280797	-0.6624197465840036	-0.2320728598149039	2.0583969188186404	-0.6452885223048374	-0.27138196516770396	1.9860375852261536	-0.5824033339381767	-0.27583129976071774	1.9175891480246394	-0.5101185335654171	-0.22587897571206333	1.8921213828079124	-0.5560079271566993	-0.2470618063773359	1.9893777194761006	-0.7458099386858394	-1.0376844272350512	1.8414223507610215	0.04230046342342338	-0.18892567477438926	1.8971064833720646	-0.6828300290696866
65	2.1666666666666665	-0.2528262234356239	1.8209113538260848	-0.6248741986406784	-0.2665867936424305	1.8197366542644426	-0.5591104726443246	-0.25711759090375325	1.6895479843564953	-0.5368682187133103	-0.293637274727512	1.5598584266603988	-0.48990968714864425	-0.23320361461876582	1.5258714855737603	-0.4397652411303089	-0.24595600548614716	1.530566652880734	-0.48478807339864566	-0.3043549354543178	1.5482157399203405	-0.49149790896755685	-0.24219891752652753	1.8236541367394745	-0.6858770438838369	-0.2576267566708195	1.688856457745553	-0.6487805078726242													-0.26246689525538797	1.9865214865319474	-0.662482342604165	-0.23204615915082138	2.0570611323913526	-0.6448288637796742	-0.2734360114068556	1.9858803806432432	-0.5804385171052808	-0.27292833468640276	1.915088061113017	-0.5175098963396991	-0.22195529989391377	1.8762466878516675	-0.5199675757253948	-0.24707346503553604	1.9881380739165992	-0.7459132311976705	-1.062009368104505	1.837151008884034	0.08023812778466317	-0.17697572820198254	1.8684982081157298	-0.7048391917790693
66	2.2	-0.25214413060924135	1.8110741891934914	-0.6204915789815417	-0.26328312590560815	1.8106353127990522	-0.5537678118962721	-0.25557380703211613	1.688923771415839	-0.5362528155515286	-0.29036898339737266	1.5575039105192459	-0.4845359015142372	-0.23320361461876582	1.5258714855737603	-0.4397652411303089	-0.24553901167128003	1.5301554366467227	-0.4816128116698385	-0.30071805005274604	1.5445892910400354	-0.4845785271318702	-0.2396486236563591	1.8150838435284125	-0.6755135158009277	-0.25716142555423555	1.688347316377069	-0.6470758967537646													-0.26239846831196806	1.9852323591836925	-0.6621053218942391	-0.23113659605543602	2.056917762787056	-0.6418176233475884	-0.27356111088966306	1.9848411741049155	-0.5804286760202862	-0.26156796240084407	1.9070876912916659	-0.5238571557707263	-0.22854385481546244	1.8446177198230944	-0.47315419530830355	-0.24613563545982994	1.9866978042638614	-0.7427016509820913	-1.083985117418974	1.8366537319467762	0.11231643788436503	-0.175906292875103	1.846520742960179	-0.7279538797685027
